<svg width="100%" height="100%" viewBox="0 0 104 112" version="1.1" xmlns="http://www.w3.org/2000/svg" xmlns:xlink="http://www.w3.org/1999/xlink" xml:space="preserve" xmlns:serif="http://www.serif.com/" style="fill-rule:evenodd;clip-rule:evenodd;stroke-linecap:round;stroke-linejoin:round;stroke-miterlimit:1.5;">
    <g transform="matrix(1,0,0,1,-244.093,-487.438)">
        <g transform="matrix(1,0,0,1,-237.406,123.896)">
            <g>
                <g transform="matrix(0.516077,0,0,0.597441,378.608,259.433)">
                    <g transform="matrix(1,0,0,1,-0.34108,0)">
                        <path d="M200.749,328.007C200.749,314.267 200.682,281.754 200.682,268.007C200.682,250.349 245.185,236.013 300,236.013C354.815,236.013 399.318,250.349 399.318,268.007C399.318,281.746 399.385,314.259 399.385,328.007C399.385,345.664 354.882,360 300.067,360C245.252,360 200.749,345.664 200.749,328.007Z" style="fill:rgb(255,252,252);stroke:black;stroke-width:1.79px;"/>
                    </g>
                    <g transform="matrix(1,0,0,1,-0.374573,-60)">
                        <ellipse cx="300.067" cy="328.007" rx="99.318" ry="31.993" style="fill:white;stroke:black;stroke-width:1.79px;"/>
                    </g>
                </g>
                <g transform="matrix(0.384669,0,0,0.494513,417.99,247.33)">
                    <g transform="matrix(1,0,0,1,-0.34108,0)">
                        <path d="M200.749,328.007C200.749,314.267 200.682,281.754 200.682,268.007C200.682,250.349 245.185,236.013 300,236.013C354.815,236.013 399.318,250.349 399.318,268.007C399.318,281.746 399.385,314.259 399.385,328.007C399.385,345.664 354.882,360 300.067,360C245.252,360 200.749,345.664 200.749,328.007Z" style="fill:rgb(255,252,252);stroke:black;stroke-width:2.26px;"/>
                    </g>
                    <g transform="matrix(1,0,0,1,-0.374573,-60)">
                        <ellipse cx="300.067" cy="328.007" rx="99.318" ry="31.993" style="fill:white;stroke:black;stroke-width:2.26px;"/>
                    </g>
                </g>
            </g>
        </g>
        <g transform="matrix(1,0,0,1,24.6556,188.429)">
            <g transform="matrix(13,0,0,13,264.574,399.815)">
                <path d="M0.16,-0.386C0.125,-0.401 0.099,-0.422 0.083,-0.448C0.067,-0.474 0.059,-0.503 0.059,-0.534C0.059,-0.588 0.077,-0.632 0.115,-0.667C0.152,-0.701 0.205,-0.719 0.273,-0.719C0.341,-0.719 0.394,-0.701 0.432,-0.667C0.469,-0.632 0.488,-0.588 0.488,-0.534C0.488,-0.501 0.48,-0.471 0.462,-0.446C0.445,-0.42 0.421,-0.4 0.39,-0.386C0.429,-0.37 0.46,-0.347 0.48,-0.316C0.501,-0.286 0.511,-0.25 0.511,-0.21C0.511,-0.144 0.49,-0.091 0.448,-0.049C0.406,-0.008 0.35,0.013 0.28,0.013C0.215,0.013 0.16,-0.004 0.117,-0.039C0.066,-0.079 0.041,-0.134 0.041,-0.205C0.041,-0.243 0.05,-0.279 0.069,-0.311C0.089,-0.344 0.119,-0.369 0.16,-0.386ZM0.188,-0.524C0.188,-0.497 0.196,-0.476 0.212,-0.46C0.227,-0.445 0.248,-0.438 0.273,-0.438C0.299,-0.438 0.32,-0.445 0.336,-0.461C0.352,-0.476 0.359,-0.498 0.359,-0.525C0.359,-0.551 0.352,-0.571 0.336,-0.587C0.321,-0.602 0.3,-0.61 0.275,-0.61C0.249,-0.61 0.228,-0.602 0.212,-0.586C0.196,-0.571 0.188,-0.55 0.188,-0.524ZM0.176,-0.218C0.176,-0.18 0.185,-0.151 0.205,-0.129C0.224,-0.108 0.248,-0.098 0.277,-0.098C0.306,-0.098 0.329,-0.108 0.348,-0.128C0.366,-0.149 0.375,-0.178 0.375,-0.216C0.375,-0.25 0.366,-0.277 0.347,-0.297C0.328,-0.317 0.304,-0.328 0.275,-0.328C0.242,-0.328 0.217,-0.316 0.2,-0.293C0.184,-0.27 0.176,-0.245 0.176,-0.218Z" style="fill:rgb(24,87,232);fill-rule:nonzero;"/>
            </g>
            <g transform="matrix(13,0,0,13,271.804,399.815)">
                <path d="M0.081,-0.461L0.055,-0.595L0.055,-0.716L0.204,-0.716L0.204,-0.595L0.182,-0.461L0.081,-0.461ZM0.301,-0.461L0.275,-0.595L0.275,-0.716L0.424,-0.716L0.424,-0.595L0.402,-0.461L0.301,-0.461Z" style="fill:rgb(24,87,232);fill-rule:nonzero;"/>
            </g>
        </g>
        <g transform="matrix(1,0,0,1,24.6556,143.193)">
            <g transform="matrix(13,0,0,13,264.574,399.815)">
                <path d="M0.507,-0.541L0.375,-0.526C0.371,-0.553 0.363,-0.573 0.349,-0.586C0.335,-0.599 0.318,-0.606 0.296,-0.606C0.267,-0.606 0.242,-0.593 0.222,-0.567C0.202,-0.541 0.19,-0.487 0.185,-0.404C0.219,-0.445 0.261,-0.465 0.312,-0.465C0.369,-0.465 0.418,-0.443 0.459,-0.399C0.5,-0.356 0.521,-0.299 0.521,-0.23C0.521,-0.157 0.499,-0.098 0.456,-0.054C0.413,-0.01 0.358,0.012 0.291,0.012C0.218,0.012 0.159,-0.016 0.112,-0.072C0.066,-0.128 0.042,-0.22 0.042,-0.348C0.042,-0.479 0.067,-0.574 0.115,-0.632C0.164,-0.69 0.227,-0.719 0.304,-0.719C0.359,-0.719 0.404,-0.704 0.439,-0.673C0.475,-0.643 0.498,-0.598 0.507,-0.541ZM0.196,-0.241C0.196,-0.197 0.207,-0.162 0.227,-0.138C0.248,-0.114 0.271,-0.102 0.297,-0.102C0.323,-0.102 0.344,-0.111 0.361,-0.131C0.378,-0.151 0.386,-0.184 0.386,-0.229C0.386,-0.276 0.377,-0.31 0.359,-0.331C0.341,-0.353 0.318,-0.364 0.291,-0.364C0.264,-0.364 0.242,-0.353 0.224,-0.333C0.205,-0.312 0.196,-0.282 0.196,-0.241Z" style="fill:rgb(24,87,232);fill-rule:nonzero;"/>
            </g>
            <g transform="matrix(13,0,0,13,271.804,399.815)">
                <path d="M0.081,-0.461L0.055,-0.595L0.055,-0.716L0.204,-0.716L0.204,-0.595L0.182,-0.461L0.081,-0.461ZM0.301,-0.461L0.275,-0.595L0.275,-0.716L0.424,-0.716L0.424,-0.595L0.402,-0.461L0.301,-0.461Z" style="fill:rgb(24,87,232);fill-rule:nonzero;"/>
            </g>
        </g>
    </g>
</svg>
