<svg width="100%" height="100%" viewBox="0 0 180 236" version="1.1" xmlns="http://www.w3.org/2000/svg" xmlns:xlink="http://www.w3.org/1999/xlink" xml:space="preserve" xmlns:serif="http://www.serif.com/" style="fill-rule:evenodd;clip-rule:evenodd;stroke-linecap:round;stroke-linejoin:round;stroke-miterlimit:1.5;">
    <g transform="matrix(1,0,0,1,-241.549,-78.6167)">
        <g transform="matrix(1,0,0,1,-86.2717,-403.8)">
            <g transform="matrix(1,0,0,1,51.3876,383.538)">
                <g transform="matrix(0.898381,0,0,0.928887,96.9503,-0.506372)">
                    <g transform="matrix(1,0,0,1,-0.34108,0)">
                        <path d="M200.749,328.007C200.749,314.267 200.682,281.754 200.682,268.007C200.682,250.349 245.185,236.013 300,236.013C354.815,236.013 399.318,250.349 399.318,268.007C399.318,281.746 399.385,314.259 399.385,328.007C399.385,345.664 354.882,360 300.067,360C245.252,360 200.749,345.664 200.749,328.007Z" style="fill:rgb(255,252,252);stroke:black;stroke-width:1.09px;"/>
                    </g>
                    <g transform="matrix(1,0,0,1,-0.374573,-60)">
                        <ellipse cx="300.067" cy="328.007" rx="99.318" ry="31.993" style="fill:white;stroke:black;stroke-width:1.09px;"/>
                    </g>
                </g>
                <g transform="matrix(0.693332,0,0,0.721368,158.402,3.75082)">
                    <g transform="matrix(1,0,0,1,-0.34108,0)">
                        <path d="M200.749,328.007C200.749,314.267 200.682,281.754 200.682,268.007C200.682,250.349 245.185,236.013 300,236.013C354.815,236.013 399.318,250.349 399.318,268.007C399.318,281.746 399.385,314.259 399.385,328.007C399.385,345.664 354.882,360 300.067,360C245.252,360 200.749,345.664 200.749,328.007Z" style="fill:rgb(255,252,252);stroke:black;stroke-width:1.41px;"/>
                    </g>
                    <g transform="matrix(1,0,0,1,-0.374573,-60)">
                        <ellipse cx="300.067" cy="328.007" rx="99.318" ry="31.993" style="fill:white;stroke:black;stroke-width:1.41px;"/>
                    </g>
                </g>
                <g transform="matrix(0.516077,0,0,0.597441,211.524,-5.22907)">
                    <g transform="matrix(1,0,0,1,-0.34108,0)">
                        <path d="M200.749,328.007C200.749,314.267 200.682,281.754 200.682,268.007C200.682,250.349 245.185,236.013 300,236.013C354.815,236.013 399.318,250.349 399.318,268.007C399.318,281.746 399.385,314.259 399.385,328.007C399.385,345.664 354.882,360 300.067,360C245.252,360 200.749,345.664 200.749,328.007Z" style="fill:rgb(255,252,252);stroke:black;stroke-width:1.79px;"/>
                    </g>
                    <g transform="matrix(1,0,0,1,-0.374573,-60)">
                        <ellipse cx="300.067" cy="328.007" rx="99.318" ry="31.993" style="fill:white;stroke:black;stroke-width:1.79px;"/>
                    </g>
                </g>
                <g transform="matrix(0.384669,0,0,0.494513,250.906,-17.332)">
                    <g transform="matrix(1,0,0,1,-0.34108,0)">
                        <path d="M200.749,328.007C200.749,314.267 200.682,281.754 200.682,268.007C200.682,250.349 245.185,236.013 300,236.013C354.815,236.013 399.318,250.349 399.318,268.007C399.318,281.746 399.385,314.259 399.385,328.007C399.385,345.664 354.882,360 300.067,360C245.252,360 200.749,345.664 200.749,328.007Z" style="fill:rgb(255,252,252);stroke:black;stroke-width:2.26px;"/>
                    </g>
                    <g transform="matrix(1,0,0,1,-0.374573,-60)">
                        <ellipse cx="300.067" cy="328.007" rx="99.318" ry="31.993" style="fill:white;stroke:black;stroke-width:2.26px;"/>
                    </g>
                </g>
            </g>
            <g transform="matrix(1,0,0,1,-8.59764,0)">
                <g transform="matrix(13,0,0,13,434.492,688.992)">
                </g>
                <text x="419.321px" y="688.992px" style="font-family:'Arial-BoldMT', 'Arial', sans-serif;font-weight:700;font-size:13px;fill:rgb(232,24,176);">T4</text>
            </g>
            <g transform="matrix(1,0,0,1,168.74,8.625)">
                <g transform="matrix(13,0,0,13,257.136,622.401)">
                </g>
                <text x="241.965px" y="622.401px" style="font-family:'Arial-BoldMT', 'Arial', sans-serif;font-weight:700;font-size:13px;fill:rgb(232,24,176);">T3</text>
            </g>
            <g transform="matrix(1,0,0,1,166.323,8.625)">
                <g transform="matrix(13,0,0,13,259.598,572.516)">
                </g>
                <text x="244.427px" y="572.516px" style="font-family:'Arial-BoldMT', 'Arial', sans-serif;font-weight:700;font-size:13px;fill:rgb(232,24,176);">T2</text>
            </g>
            <g transform="matrix(1,0,0,1,167.022,8.625)">
                <g transform="matrix(13,0,0,13,259.684,527.224)">
                </g>
                <text x="244.513px" y="527.224px" style="font-family:'Arial-BoldMT', 'Arial', sans-serif;font-weight:700;font-size:13px;fill:rgb(232,24,176);">T1</text>
            </g>
        </g>
    </g>
</svg>
