<svg width="100%" height="100%" viewBox="0 0 537 359" version="1.1" xmlns="http://www.w3.org/2000/svg" xmlns:xlink="http://www.w3.org/1999/xlink" xml:space="preserve" xmlns:serif="http://www.serif.com/" style="fill-rule:evenodd;clip-rule:evenodd;stroke-linecap:round;stroke-linejoin:round;stroke-miterlimit:1.5;">
    <g transform="matrix(1,0,0,1,-950.263,-1062.95)">
        <path d="M1218.39,1223.64C1274.73,1174.24 1387.41,1174.24 1443.76,1198.94C1500.1,1223.64 1500.1,1273.05 1443.76,1322.45C1404.32,1359.5 1302.9,1396.55 1218.39,1421.26C1133.88,1396.55 1032.46,1359.5 993.02,1322.45C936.677,1273.05 936.677,1223.64 993.02,1198.94C1049.36,1174.24 1162.05,1174.24 1218.39,1223.64Z" style="fill:white;stroke:black;stroke-width:1px;"/>
        <g transform="matrix(1,0,0,1,0,-119.269)">
            <path d="M1218.39,1223.64C1274.73,1174.24 1387.41,1174.24 1443.76,1198.94C1500.1,1223.64 1500.1,1273.05 1443.76,1322.45C1404.32,1359.5 1302.9,1396.55 1218.39,1421.26C1133.88,1396.55 1032.46,1359.5 993.02,1322.45C936.677,1273.05 936.677,1223.64 993.02,1198.94C1049.36,1174.24 1162.05,1174.24 1218.39,1223.64Z" style="fill:url(#_Linear1);stroke:black;stroke-width:1px;"/>
        </g>
        <path d="M950.763,1131.91L950.763,1252.1C958.187,1327.56 1068.16,1379.1 1218.39,1421.26L1218.39,1301.99C1055.94,1255.28 954.125,1200.3 950.763,1131.91Z" style="fill:rgb(255,1,126);stroke:black;stroke-width:1px;"/>
        <path d="M1486.02,1131.91L1486.02,1254.88C1476.37,1331.5 1357.74,1379.13 1218.39,1421.26L1218.39,1301.99C1363.5,1257.81 1483.38,1207.99 1486.02,1131.91Z" style="fill:rgb(228,34,129);stroke:black;stroke-width:1px;"/>
    </g>
    <defs>
        <linearGradient id="_Linear1" x1="0" y1="0" x2="1" y2="0" gradientUnits="userSpaceOnUse" gradientTransform="matrix(369.341,127.065,-127.065,369.341,1005.9,1222.3)"><stop offset="0" style="stop-color:rgb(255,0,151);stop-opacity:1"/><stop offset="1" style="stop-color:rgb(219,71,159);stop-opacity:1"/></linearGradient>
    </defs>
</svg>
