<svg width="100%" height="100%" viewBox="0 0 78 63" version="1.1" xmlns="http://www.w3.org/2000/svg" xmlns:xlink="http://www.w3.org/1999/xlink" xml:space="preserve" xmlns:serif="http://www.serif.com/" style="fill-rule:evenodd;clip-rule:evenodd;stroke-linecap:round;stroke-linejoin:round;stroke-miterlimit:1.5;">
    <g transform="matrix(1,0,0,1,-472.01,-555.095)">
        <g transform="matrix(0.384669,0,0,0.494513,395.444,438.884)">
            <g>
                <g transform="matrix(1,0,0,1,-0.34108,0)">
                    <path d="M200.749,328.007C200.749,314.267 200.682,281.754 200.682,268.007C200.682,250.349 245.185,236.013 300,236.013C354.815,236.013 399.318,250.349 399.318,268.007C399.318,281.746 399.385,314.259 399.385,328.007C399.385,345.664 354.882,360 300.067,360C245.252,360 200.749,345.664 200.749,328.007Z" style="fill:rgb(255,252,252);stroke:black;stroke-width:2.26px;"/>
                </g>
                <g transform="matrix(1,0,0,1,-0.374573,-60)">
                    <ellipse cx="300.067" cy="328.007" rx="99.318" ry="31.993" style="fill:white;stroke:black;stroke-width:2.26px;"/>
                </g>
            </g>
        </g>
        <g transform="matrix(1,0,0,1,239.266,207.104)">
            <g transform="matrix(13,0,0,13,260.959,399.815)">
                <path d="M0.394,-0L0.256,-0L0.256,-0.517C0.206,-0.47 0.147,-0.436 0.079,-0.413L0.079,-0.538C0.115,-0.549 0.154,-0.572 0.196,-0.604C0.238,-0.637 0.267,-0.675 0.282,-0.719L0.394,-0.719L0.394,-0Z" style="fill:rgb(24,87,232);fill-rule:nonzero;"/>
            </g>
            <g transform="matrix(13,0,0,13,268.189,399.815)">
                <path d="M0.274,-0.719C0.344,-0.719 0.398,-0.694 0.437,-0.645C0.484,-0.586 0.507,-0.489 0.507,-0.353C0.507,-0.218 0.483,-0.12 0.437,-0.061C0.398,-0.012 0.344,0.012 0.274,0.012C0.205,0.012 0.149,-0.015 0.106,-0.068C0.063,-0.122 0.042,-0.217 0.042,-0.354C0.042,-0.489 0.065,-0.586 0.112,-0.646C0.151,-0.694 0.205,-0.719 0.274,-0.719ZM0.274,-0.605C0.258,-0.605 0.243,-0.6 0.23,-0.589C0.217,-0.579 0.207,-0.56 0.2,-0.532C0.19,-0.497 0.186,-0.437 0.186,-0.353C0.186,-0.269 0.19,-0.211 0.198,-0.18C0.207,-0.149 0.217,-0.128 0.23,-0.117C0.243,-0.107 0.258,-0.102 0.274,-0.102C0.291,-0.102 0.306,-0.107 0.319,-0.117C0.332,-0.128 0.342,-0.147 0.349,-0.174C0.359,-0.209 0.363,-0.269 0.363,-0.353C0.363,-0.437 0.359,-0.495 0.351,-0.526C0.342,-0.558 0.331,-0.579 0.319,-0.589C0.306,-0.6 0.291,-0.605 0.274,-0.605Z" style="fill:rgb(24,87,232);fill-rule:nonzero;"/>
            </g>
            <g transform="matrix(13,0,0,13,275.419,399.815)">
                <path d="M0.081,-0.461L0.055,-0.595L0.055,-0.716L0.204,-0.716L0.204,-0.595L0.182,-0.461L0.081,-0.461ZM0.301,-0.461L0.275,-0.595L0.275,-0.716L0.424,-0.716L0.424,-0.595L0.402,-0.461L0.301,-0.461Z" style="fill:rgb(24,87,232);fill-rule:nonzero;"/>
            </g>
        </g>
    </g>
</svg>
