<svg width="100%" height="100%" viewBox="0 0 78 63" version="1.1" xmlns="http://www.w3.org/2000/svg" xmlns:xlink="http://www.w3.org/1999/xlink" xml:space="preserve" xmlns:serif="http://www.serif.com/" style="fill-rule:evenodd;clip-rule:evenodd;stroke-linecap:round;stroke-linejoin:round;stroke-miterlimit:1.5;">
    <g transform="matrix(1,0,0,1,-565.967,-555.095)">
        <g transform="matrix(0.384669,0,0,0.494513,489.402,438.884)">
            <g>
                <g transform="matrix(1,0,0,1,-0.34108,0)">
                    <path d="M200.749,328.007C200.749,314.267 200.682,281.754 200.682,268.007C200.682,250.349 245.185,236.013 300,236.013C354.815,236.013 399.318,250.349 399.318,268.007C399.318,281.746 399.385,314.259 399.385,328.007C399.385,345.664 354.882,360 300.067,360C245.252,360 200.749,345.664 200.749,328.007Z" style="fill:rgb(255,252,252);stroke:black;stroke-width:2.26px;"/>
                </g>
                <g transform="matrix(1,0,0,1,-0.374573,-60)">
                    <ellipse cx="300.067" cy="328.007" rx="99.318" ry="31.993" style="fill:white;stroke:black;stroke-width:2.26px;"/>
                </g>
            </g>
        </g>
        <g transform="matrix(1,0,0,1,333.223,207.183)">
            <g transform="matrix(13,0,0,13,260.959,399.815)">
                <path d="M0.394,-0L0.256,-0L0.256,-0.517C0.206,-0.47 0.147,-0.436 0.079,-0.413L0.079,-0.538C0.115,-0.549 0.154,-0.572 0.196,-0.604C0.238,-0.637 0.267,-0.675 0.282,-0.719L0.394,-0.719L0.394,-0Z" style="fill:rgb(24,87,232);fill-rule:nonzero;"/>
            </g>
            <g transform="matrix(13,0,0,13,268.189,399.815)">
                <path d="M0.506,-0.127L0.506,-0L0.025,-0C0.03,-0.048 0.046,-0.094 0.072,-0.137C0.098,-0.18 0.149,-0.237 0.226,-0.309C0.288,-0.366 0.326,-0.405 0.34,-0.426C0.359,-0.454 0.368,-0.482 0.368,-0.51C0.368,-0.54 0.36,-0.564 0.344,-0.58C0.327,-0.597 0.304,-0.605 0.275,-0.605C0.247,-0.605 0.224,-0.596 0.207,-0.579C0.19,-0.562 0.18,-0.533 0.178,-0.493L0.041,-0.507C0.049,-0.582 0.075,-0.637 0.118,-0.669C0.161,-0.702 0.214,-0.719 0.279,-0.719C0.349,-0.719 0.405,-0.7 0.445,-0.662C0.486,-0.624 0.506,-0.576 0.506,-0.52C0.506,-0.487 0.5,-0.457 0.489,-0.427C0.477,-0.398 0.459,-0.368 0.434,-0.336C0.417,-0.315 0.387,-0.284 0.344,-0.245C0.3,-0.205 0.273,-0.179 0.261,-0.166C0.25,-0.153 0.241,-0.14 0.233,-0.127L0.506,-0.127Z" style="fill:rgb(24,87,232);fill-rule:nonzero;"/>
            </g>
            <g transform="matrix(13,0,0,13,275.419,399.815)">
                <path d="M0.081,-0.461L0.055,-0.595L0.055,-0.716L0.204,-0.716L0.204,-0.595L0.182,-0.461L0.081,-0.461ZM0.301,-0.461L0.275,-0.595L0.275,-0.716L0.424,-0.716L0.424,-0.595L0.402,-0.461L0.301,-0.461Z" style="fill:rgb(24,87,232);fill-rule:nonzero;"/>
            </g>
        </g>
    </g>
</svg>
