<svg width="100%" height="100%" viewBox="0 0 670 483" version="1.1" xmlns="http://www.w3.org/2000/svg" xmlns:xlink="http://www.w3.org/1999/xlink" xml:space="preserve" xmlns:serif="http://www.serif.com/" style="fill-rule:evenodd;clip-rule:evenodd;stroke-linecap:round;stroke-linejoin:round;stroke-miterlimit:1.5;">
    <g transform="matrix(1,0,0,1,-59.8929,-1930.39)">
        <g>
            <g transform="matrix(1,0,0,1,-692.904,532.702)">
                <path d="M756.303,1589.82L1087.39,1398.19L1418.75,1589.94L1087.97,1783.54L756.303,1589.82Z" style="fill:rgb(234,136,136);stroke:black;stroke-width:1px;"/>
            </g>
            <g transform="matrix(1,0,0,1,-692.904,532.702)">
                <path d="M753.297,1687.23L756.303,1589.82L1087.97,1783.54L1086.41,1880.11L753.297,1687.23" style="fill:rgb(200,95,95);stroke:black;stroke-width:1px;"/>
            </g>
            <g transform="matrix(1,0,0,1,-692.904,532.702)">
                <path d="M1421.95,1686.38L1421.4,1591.03L1089.91,1782.42L1086.41,1880.11L1421.95,1686.38Z" style="fill:rgb(146,71,71);stroke:black;stroke-width:1px;"/>
            </g>
            <g transform="matrix(1,0,0,1,-692.904,532.702)">
                <g transform="matrix(50,0,0,50,1085.88,1595.16)">
                    <path d="M0.373,-0L0.285,-0L0.285,-0.56C0.264,-0.54 0.236,-0.52 0.201,-0.5C0.167,-0.479 0.136,-0.464 0.109,-0.454L0.109,-0.539C0.158,-0.562 0.201,-0.59 0.238,-0.623C0.275,-0.656 0.301,-0.688 0.316,-0.719L0.373,-0.719L0.373,-0Z" style="fill-rule:nonzero;"/>
                </g>
                <g transform="matrix(50,0,0,50,1113.69,1595.16)">
                    <path d="M0.503,-0.084L0.503,-0L0.03,-0C0.03,-0.021 0.033,-0.042 0.041,-0.061C0.053,-0.093 0.072,-0.125 0.098,-0.156C0.125,-0.188 0.163,-0.224 0.213,-0.265C0.291,-0.328 0.344,-0.379 0.371,-0.416C0.398,-0.454 0.412,-0.489 0.412,-0.522C0.412,-0.557 0.4,-0.586 0.375,-0.61C0.35,-0.634 0.317,-0.646 0.277,-0.646C0.235,-0.646 0.201,-0.633 0.176,-0.608C0.15,-0.583 0.138,-0.547 0.137,-0.502L0.047,-0.512C0.053,-0.579 0.076,-0.63 0.117,-0.666C0.157,-0.701 0.211,-0.719 0.279,-0.719C0.348,-0.719 0.402,-0.7 0.442,-0.662C0.482,-0.624 0.502,-0.576 0.502,-0.52C0.502,-0.491 0.497,-0.463 0.485,-0.436C0.473,-0.408 0.454,-0.379 0.427,-0.348C0.399,-0.318 0.354,-0.276 0.291,-0.222C0.238,-0.178 0.204,-0.148 0.189,-0.132C0.174,-0.116 0.162,-0.1 0.152,-0.084L0.503,-0.084Z" style="fill-rule:nonzero;"/>
                </g>
                <g transform="matrix(50,0,0,50,1141.5,1595.16)">
                    <path d="M0.07,-0.462L0.046,-0.599L0.046,-0.716L0.146,-0.716L0.146,-0.599L0.124,-0.462L0.07,-0.462ZM0.232,-0.462L0.208,-0.599L0.208,-0.716L0.308,-0.716L0.308,-0.599L0.285,-0.462L0.232,-0.462Z" style="fill-rule:nonzero;"/>
                </g>
            </g>
        </g>
    </g>
</svg>
