<svg width="100%" height="100%" viewBox="0 0 670 484" version="1.1" xmlns="http://www.w3.org/2000/svg" xmlns:xlink="http://www.w3.org/1999/xlink" xml:space="preserve" xmlns:serif="http://www.serif.com/" style="fill-rule:evenodd;clip-rule:evenodd;stroke-linecap:round;stroke-linejoin:round;stroke-miterlimit:1.5;">
    <g transform="matrix(1,0,0,1,-828.392,-1918.86)">
        <g>
            <g transform="matrix(1,0,0,1,77.9468,521.173)">
                <path d="M756.303,1589.82L1087.39,1398.19L1418.75,1589.94L1087.97,1783.54L756.303,1589.82Z" style="fill:rgb(234,136,136);stroke:black;stroke-width:1px;"/>
            </g>
            <g transform="matrix(1,0,0,1,75.5946,522.056)">
                <path d="M753.297,1687.23L756.303,1589.82L1087.97,1783.54L1086.41,1880.11L753.297,1687.23" style="fill:rgb(200,95,95);stroke:black;stroke-width:1px;"/>
            </g>
            <g transform="matrix(1,0,0,1,75.5946,522.056)">
                <path d="M1421.95,1686.38L1421.4,1591.03L1089.91,1782.42L1086.41,1880.11L1421.95,1686.38Z" style="fill:rgb(146,71,71);stroke:black;stroke-width:1px;"/>
            </g>
            <g transform="matrix(1,0,0,1,75.5946,522.056)">
                <g transform="matrix(50,0,0,50,1085.88,1595.16)">
                    <path d="M0.373,-0L0.285,-0L0.285,-0.56C0.264,-0.54 0.236,-0.52 0.201,-0.5C0.167,-0.479 0.136,-0.464 0.109,-0.454L0.109,-0.539C0.158,-0.562 0.201,-0.59 0.238,-0.623C0.275,-0.656 0.301,-0.688 0.316,-0.719L0.373,-0.719L0.373,-0Z" style="fill-rule:nonzero;"/>
                </g>
                <g transform="matrix(50,0,0,50,1113.69,1595.16)">
                    <path d="M0.323,-0L0.323,-0.171L0.013,-0.171L0.013,-0.252L0.339,-0.716L0.411,-0.716L0.411,-0.252L0.508,-0.252L0.508,-0.171L0.411,-0.171L0.411,-0L0.323,-0ZM0.323,-0.252L0.323,-0.575L0.099,-0.252L0.323,-0.252Z" style="fill-rule:nonzero;"/>
                </g>
                <g transform="matrix(50,0,0,50,1141.5,1595.16)">
                    <path d="M0.07,-0.462L0.046,-0.599L0.046,-0.716L0.146,-0.716L0.146,-0.599L0.124,-0.462L0.07,-0.462ZM0.232,-0.462L0.208,-0.599L0.208,-0.716L0.308,-0.716L0.308,-0.599L0.285,-0.462L0.232,-0.462Z" style="fill-rule:nonzero;"/>
                </g>
            </g>
        </g>
    </g>
</svg>
