<svg width="100%" height="100%" viewBox="0 0 670 483" version="1.1" xmlns="http://www.w3.org/2000/svg" xmlns:xlink="http://www.w3.org/1999/xlink" xml:space="preserve" xmlns:serif="http://www.serif.com/" style="fill-rule:evenodd;clip-rule:evenodd;stroke-linecap:round;stroke-linejoin:round;stroke-miterlimit:1.5;">
    <g transform="matrix(1,0,0,1,-77.1401,-1397.87)">
        <g>
            <g transform="matrix(1,0,0,1,-675.657,0.183824)">
                <path d="M756.303,1589.82L1087.39,1398.19L1418.75,1589.94L1087.97,1783.54L756.303,1589.82Z" style="fill:rgb(234,136,136);stroke:black;stroke-width:1px;"/>
            </g>
            <g transform="matrix(1,0,0,1,-675.657,0.183824)">
                <path d="M753.297,1687.23L756.303,1589.82L1087.97,1783.54L1086.41,1880.11L753.297,1687.23" style="fill:rgb(200,95,95);stroke:black;stroke-width:1px;"/>
            </g>
            <g transform="matrix(1,0,0,1,-675.657,0.183824)">
                <path d="M1421.95,1686.38L1421.4,1591.03L1089.91,1782.42L1086.41,1880.11L1421.95,1686.38Z" style="fill:rgb(146,71,71);stroke:black;stroke-width:1px;"/>
            </g>
            <g transform="matrix(1,0,0,1,-675.657,0.183824)">
                <g transform="matrix(50,0,0,50,1085.88,1595.16)">
                    <path d="M0.498,-0.541L0.41,-0.534C0.402,-0.568 0.391,-0.593 0.377,-0.609C0.353,-0.634 0.324,-0.646 0.289,-0.646C0.261,-0.646 0.236,-0.639 0.215,-0.623C0.188,-0.603 0.166,-0.573 0.15,-0.535C0.134,-0.496 0.126,-0.441 0.125,-0.369C0.146,-0.401 0.172,-0.425 0.203,-0.441C0.233,-0.457 0.265,-0.464 0.299,-0.464C0.357,-0.464 0.407,-0.443 0.448,-0.4C0.49,-0.357 0.51,-0.301 0.51,-0.232C0.51,-0.188 0.501,-0.146 0.481,-0.107C0.462,-0.069 0.435,-0.039 0.401,-0.019C0.368,0.002 0.329,0.012 0.286,0.012C0.213,0.012 0.153,-0.015 0.107,-0.069C0.061,-0.122 0.038,-0.211 0.038,-0.335C0.038,-0.473 0.063,-0.574 0.114,-0.637C0.159,-0.691 0.219,-0.719 0.294,-0.719C0.351,-0.719 0.397,-0.703 0.433,-0.671C0.469,-0.64 0.49,-0.596 0.498,-0.541ZM0.139,-0.232C0.139,-0.202 0.145,-0.173 0.158,-0.145C0.171,-0.117 0.189,-0.096 0.212,-0.082C0.235,-0.067 0.259,-0.06 0.285,-0.06C0.322,-0.06 0.354,-0.075 0.38,-0.105C0.407,-0.135 0.42,-0.176 0.42,-0.227C0.42,-0.277 0.407,-0.316 0.381,-0.344C0.354,-0.372 0.321,-0.387 0.281,-0.387C0.242,-0.387 0.208,-0.372 0.18,-0.344C0.153,-0.316 0.139,-0.278 0.139,-0.232Z" style="fill-rule:nonzero;"/>
                </g>
                <g transform="matrix(50,0,0,50,1113.69,1595.16)">
                    <path d="M0.07,-0.462L0.046,-0.599L0.046,-0.716L0.146,-0.716L0.146,-0.599L0.124,-0.462L0.07,-0.462ZM0.232,-0.462L0.208,-0.599L0.208,-0.716L0.308,-0.716L0.308,-0.599L0.285,-0.462L0.232,-0.462Z" style="fill-rule:nonzero;"/>
                </g>
            </g>
        </g>
    </g>
</svg>
