<svg width="100%" height="100%" viewBox="0 0 670 483" version="1.1" xmlns="http://www.w3.org/2000/svg" xmlns:xlink="http://www.w3.org/1999/xlink" xml:space="preserve" xmlns:serif="http://www.serif.com/" style="fill-rule:evenodd;clip-rule:evenodd;stroke-linecap:round;stroke-linejoin:round;stroke-miterlimit:1.5;">
    <g transform="matrix(1,0,0,1,-1586.6,-1393.43)">
        <g>
            <g transform="matrix(1,0,0,1,833.802,-4.25892)">
                <path d="M756.303,1589.82L1087.39,1398.19L1418.75,1589.94L1087.97,1783.54L756.303,1589.82Z" style="fill:rgb(234,136,136);stroke:black;stroke-width:1px;"/>
            </g>
            <g transform="matrix(1,0,0,1,833.802,-4.25892)">
                <path d="M753.297,1687.23L756.303,1589.82L1087.97,1783.54L1086.41,1880.11L753.297,1687.23" style="fill:rgb(200,95,95);stroke:black;stroke-width:1px;"/>
            </g>
            <g transform="matrix(1,0,0,1,833.802,-4.25892)">
                <path d="M1421.95,1686.38L1421.4,1591.03L1089.91,1782.42L1086.41,1880.11L1421.95,1686.38Z" style="fill:rgb(146,71,71);stroke:black;stroke-width:1px;"/>
            </g>
            <g transform="matrix(1,0,0,1,833.802,-4.25892)">
                <g transform="matrix(50,0,0,50,1085.88,1595.16)">
                    <path d="M0.373,-0L0.285,-0L0.285,-0.56C0.264,-0.54 0.236,-0.52 0.201,-0.5C0.167,-0.479 0.136,-0.464 0.109,-0.454L0.109,-0.539C0.158,-0.562 0.201,-0.59 0.238,-0.623C0.275,-0.656 0.301,-0.688 0.316,-0.719L0.373,-0.719L0.373,-0Z" style="fill-rule:nonzero;"/>
                </g>
                <g transform="matrix(50,0,0,50,1113.69,1595.16)">
                    <path d="M0.042,-0.353C0.042,-0.438 0.05,-0.506 0.068,-0.557C0.085,-0.609 0.111,-0.649 0.145,-0.677C0.18,-0.705 0.223,-0.719 0.275,-0.719C0.313,-0.719 0.347,-0.711 0.376,-0.696C0.405,-0.68 0.429,-0.658 0.448,-0.629C0.467,-0.6 0.481,-0.564 0.492,-0.522C0.503,-0.48 0.508,-0.424 0.508,-0.353C0.508,-0.269 0.5,-0.201 0.482,-0.15C0.465,-0.098 0.439,-0.058 0.405,-0.03C0.371,-0.002 0.327,0.012 0.275,0.012C0.206,0.012 0.152,-0.013 0.112,-0.062C0.065,-0.122 0.042,-0.219 0.042,-0.353ZM0.132,-0.353C0.132,-0.236 0.146,-0.157 0.173,-0.118C0.201,-0.08 0.235,-0.06 0.275,-0.06C0.315,-0.06 0.349,-0.08 0.377,-0.119C0.404,-0.158 0.418,-0.236 0.418,-0.353C0.418,-0.471 0.404,-0.549 0.377,-0.588C0.349,-0.627 0.315,-0.646 0.274,-0.646C0.234,-0.646 0.201,-0.629 0.177,-0.595C0.147,-0.551 0.132,-0.471 0.132,-0.353Z" style="fill-rule:nonzero;"/>
                </g>
                <g transform="matrix(50,0,0,50,1141.5,1595.16)">
                    <path d="M0.07,-0.462L0.046,-0.599L0.046,-0.716L0.146,-0.716L0.146,-0.599L0.124,-0.462L0.07,-0.462ZM0.232,-0.462L0.208,-0.599L0.208,-0.716L0.308,-0.716L0.308,-0.599L0.285,-0.462L0.232,-0.462Z" style="fill-rule:nonzero;"/>
                </g>
            </g>
        </g>
    </g>
</svg>
