<svg width="100%" height="100%" viewBox="0 0 670 483" version="1.1" xmlns="http://www.w3.org/2000/svg" xmlns:xlink="http://www.w3.org/1999/xlink" xml:space="preserve" xmlns:serif="http://www.serif.com/" style="fill-rule:evenodd;clip-rule:evenodd;stroke-linecap:round;stroke-linejoin:round;stroke-miterlimit:1.5;">
    <g transform="matrix(1,0,0,1,-829.001,-1349.47)">
        <g>
            <g transform="matrix(1,0,0,1,76.2038,-48.2151)">
                <path d="M756.303,1589.82L1087.39,1398.19L1418.75,1589.94L1087.97,1783.54L756.303,1589.82Z" style="fill:rgb(234,136,136);stroke:black;stroke-width:1px;"/>
            </g>
            <g transform="matrix(1,0,0,1,76.2038,-48.2151)">
                <path d="M753.297,1687.23L756.303,1589.82L1087.97,1783.54L1086.41,1880.11L753.297,1687.23" style="fill:rgb(200,95,95);stroke:black;stroke-width:1px;"/>
            </g>
            <g transform="matrix(1,0,0,1,76.2038,-48.2151)">
                <path d="M1421.95,1686.38L1421.4,1591.03L1089.91,1782.42L1086.41,1880.11L1421.95,1686.38Z" style="fill:rgb(146,71,71);stroke:black;stroke-width:1px;"/>
            </g>
            <g transform="matrix(1,0,0,1,76.2038,-48.2151)">
                <g transform="matrix(50,0,0,50,1085.88,1595.16)">
                    <path d="M0.177,-0.388C0.14,-0.402 0.113,-0.421 0.096,-0.445C0.078,-0.47 0.069,-0.5 0.069,-0.534C0.069,-0.586 0.088,-0.63 0.125,-0.666C0.163,-0.701 0.213,-0.719 0.275,-0.719C0.337,-0.719 0.388,-0.701 0.426,-0.664C0.464,-0.628 0.483,-0.584 0.483,-0.532C0.483,-0.499 0.474,-0.47 0.457,-0.445C0.439,-0.42 0.413,-0.402 0.377,-0.388C0.421,-0.374 0.455,-0.351 0.478,-0.319C0.501,-0.287 0.512,-0.249 0.512,-0.205C0.512,-0.143 0.491,-0.092 0.447,-0.05C0.404,-0.009 0.347,0.012 0.276,0.012C0.206,0.012 0.149,-0.009 0.105,-0.051C0.062,-0.092 0.041,-0.145 0.041,-0.207C0.041,-0.254 0.052,-0.293 0.076,-0.324C0.1,-0.355 0.133,-0.377 0.177,-0.388ZM0.159,-0.537C0.159,-0.503 0.17,-0.476 0.192,-0.454C0.214,-0.433 0.242,-0.422 0.277,-0.422C0.311,-0.422 0.338,-0.433 0.36,-0.454C0.382,-0.475 0.393,-0.501 0.393,-0.532C0.393,-0.564 0.381,-0.592 0.359,-0.614C0.337,-0.635 0.309,-0.646 0.276,-0.646C0.242,-0.646 0.215,-0.636 0.192,-0.614C0.17,-0.593 0.159,-0.567 0.159,-0.537ZM0.131,-0.207C0.131,-0.181 0.137,-0.157 0.149,-0.134C0.161,-0.11 0.178,-0.092 0.202,-0.079C0.225,-0.066 0.25,-0.06 0.277,-0.06C0.319,-0.06 0.354,-0.074 0.381,-0.101C0.409,-0.128 0.422,-0.162 0.422,-0.204C0.422,-0.246 0.408,-0.281 0.38,-0.309C0.352,-0.336 0.317,-0.35 0.274,-0.35C0.233,-0.35 0.199,-0.336 0.172,-0.309C0.144,-0.282 0.131,-0.248 0.131,-0.207Z" style="fill-rule:nonzero;"/>
                </g>
                <g transform="matrix(50,0,0,50,1113.69,1595.16)">
                    <path d="M0.07,-0.462L0.046,-0.599L0.046,-0.716L0.146,-0.716L0.146,-0.599L0.124,-0.462L0.07,-0.462ZM0.232,-0.462L0.208,-0.599L0.208,-0.716L0.308,-0.716L0.308,-0.599L0.285,-0.462L0.232,-0.462Z" style="fill-rule:nonzero;"/>
                </g>
            </g>
        </g>
    </g>
</svg>
